HIERARCHY
ROOT Hips
{
	OFFSET 0.00000 0.00000 0.00000
	CHANNELS 6 Xposition Yposition Zposition Zrotation Yrotation Xrotation 
	JOINT LHipJoint
	{
		OFFSET 0 0 0
		CHANNELS 3 Zrotation Yrotation Xrotation
		JOINT LeftHip
		{
			OFFSET 1.36337 -1.57426 1.11036
			CHANNELS 3 Zrotation Yrotation Xrotation
			JOINT LeftKnee
			{
				OFFSET 2.38468 -6.55187 0.00000
				CHANNELS 3 Zrotation Yrotation Xrotation
				JOINT LeftAnkle
				{
					OFFSET 2.37166 -6.51609 0.00000
					CHANNELS 3 Zrotation Yrotation Xrotation
					JOINT LeftToe
					{
						OFFSET 0.29078 -0.79891 2.01393
						CHANNELS 3 Zrotation Yrotation Xrotation
						End Site
						{
							OFFSET 0.00000 -0.00000 1.07924
						}
					}
				}
			}
		}
	}
	JOINT RHipJoint
	{
		OFFSET 0 0 0
		CHANNELS 3 Zrotation Yrotation Xrotation
		JOINT RightHip
		{
			OFFSET -1.36349 -1.57426 1.11036
			CHANNELS 3 Zrotation Yrotation Xrotation
			JOINT RightKnee
			{
				OFFSET -2.29562 -6.30717 0.00000
				CHANNELS 3 Zrotation Yrotation Xrotation
				JOINT RightAnkle
				{
					OFFSET -2.40985 -6.62100 0.00000
					CHANNELS 3 Zrotation Yrotation Xrotation
					JOINT RightToe
					{
						OFFSET -0.23197 -0.63733 1.92232
						CHANNELS 3 Zrotation Yrotation Xrotation
						End Site
						{
							OFFSET -0.00000 -0.00000 1.01562
						}
					}
				}
			}
		}
	}
	JOINT lowerback
	{
		OFFSET 0 0 0
		CHANNELS 3 Zrotation Yrotation Xrotation
		JOINT Chest
		{
			OFFSET -0.08565 2.03602 -0.24562
			CHANNELS 3 Zrotation Yrotation Xrotation
			JOINT Chest2
			{
				OFFSET -0.00036 2.05693 0.00216
				CHANNELS 3 Zrotation Yrotation Xrotation
				JOINT lowerneck
				{
					OFFSET 0 0 0
					CHANNELS 3 Zrotation Yrotation Xrotation
					JOINT Neck
					{
						OFFSET -0.03664 1.69515 0.31789
						CHANNELS 3 Zrotation Yrotation Xrotation
						JOINT Head
						{
							OFFSET 0.00932 1.70181 -0.46013
							CHANNELS 3 Zrotation Yrotation Xrotation
							End Site
							{
								OFFSET 0.01243 1.77620 -0.19377
							}
						}
					}
				}
				JOINT LeftCollar
				{
					OFFSET 0 0 0
					CHANNELS 3 Zrotation Yrotation Xrotation
					JOINT LeftShoulder
					{
						OFFSET 3.74344 0.81315 -0.36647
CHANNELS 3 Zrotation Xrotation Yrotation
						JOINT LeftElbow
						{
OFFSET 0 -4.971850 -0.000000
CHANNELS 3 Zrotation Xrotation Yrotation
							JOINT LeftWrist
							{
OFFSET 0 -3.358110 0.000000
CHANNELS 3 Zrotation Xrotation Yrotation
								JOINT lhand
								{
									OFFSET 0 0 0
CHANNELS 3 Zrotation Xrotation Yrotation
									JOINT LFingers
									{
OFFSET 0 -0.622780 0.000000
CHANNELS 3 Zrotation Xrotation Yrotation
										End Site
										{
OFFSET 0 -0.502100 0.000000
										}
									}
								}
								JOINT LThumb
								{
OFFSET 0 0.000000 0.000000
CHANNELS 3 Zrotation Xrotation Yrotation
									End Site
									{
OFFSET 0 -0.509760 0.509760
									}
								}
							}
						}
					}
				}
				JOINT RightCollar
				{
					OFFSET 0 0 0
					CHANNELS 3 Zrotation Yrotation Xrotation
					JOINT RightShoulder
					{
						OFFSET -3.75385 0.50666 -0.06525
CHANNELS 3 Zrotation Xrotation Yrotation
						JOINT RightElbow
						{
OFFSET 0 -4.964930 -0.000000
CHANNELS 3 Zrotation Xrotation Yrotation
							JOINT RightWrist
							{
OFFSET 0 -3.349290 0.000000
CHANNELS 3 Zrotation Xrotation Yrotation
								JOINT rhand
								{
									OFFSET 0 0 0
CHANNELS 3 Zrotation Xrotation Yrotation
									JOINT RFingers
									{
OFFSET 0 -0.638040 0.000000
CHANNELS 3 Zrotation Xrotation Yrotation
										End Site
										{
OFFSET 0 -0.514410 0.000000
										}
									}
								}
								JOINT RThumb
								{
OFFSET 0 0.000000 0.000000
CHANNELS 3 Zrotation Xrotation Yrotation
									End Site
									{
OFFSET 0 -0.522260 0.522260
									}
								}
							}
						}
					}
				}
			}
		}
	}
}
MOTION
Frames: 12
Frame Time: 0.008333333333333333
11.011500 16.847000 -1.916600 149.602000 -82.156800 -146.459000 0.000000 0.000000 0.000000 -16.591400 -8.535300 -1.236500 1.016000 6.412900 17.987400 0.142400 16.715900 -24.976600 0.000400 0.121200 0.332900 0.000000 0.000000 0.000000 11.491500 -1.663300 -5.351500 -0.806900 -5.732900 16.011300 -0.448900 5.190800 -11.946400 -0.561400 -4.799000 13.336200 -3.217200 -0.168500 -6.914900 0.741000 0.032400 2.845600 2.590400 -0.148400 6.867900 -3.052400 1.346400 -24.380200 -0.121300 2.587700 36.174800 0.936900 0.268900 17.350400 -0.000000 0.000000 0.000000 -2.205100 -3.616500 -31.421900 11.485200 -19.028100 1.931100 21.382900 -11.391900 10.285900 0.000000 0.000000 0.000000 -7.125000 0.000000 0.000000 -3.999400 18.966300 -2.488400 -0.000000 0.000000 0.000000 -1.595900 -0.996000 18.991200 -14.292500 -23.151400 -2.942100 -12.521300 -5.359300 30.382200 0.000000 0.000000 0.000000 7.125000 0.000000 -0.000000 21.573100 59.649700 -7.940500
11.039291 16.854205 -1.983725 152.571446 -82.477917 -149.488594 0.000000 0.000000 0.000000 -15.678994 -8.297221 -1.242253 0.992255 6.339513 17.772925 0.617875 13.285990 -24.961869 0.078682 -1.809282 -4.978910 0.000000 0.000000 0.000000 12.461627 -1.055599 -5.198633 -0.828163 -5.805609 16.221589 -0.541380 6.165700 -13.170152 -2.371415 -9.495632 27.440049 -2.967291 -0.284135 -6.612832 1.111783 -0.180546 2.706652 2.810860 -0.243862 6.561470 -3.282812 1.383577 -23.764464 -0.179536 2.724431 35.946545 0.970351 0.288765 17.072915 0.000000 0.000000 0.000000 -2.386246 -3.165887 -31.217447 11.507773 -19.062375 1.938573 22.174128 -12.669450 10.837836 0.000000 0.000000 0.000000 -7.125000 0.000000 0.000000 -3.455968 18.311600 -2.199122 0.000000 0.000000 0.000000 -1.964301 -0.648213 19.484709 -14.354565 -23.239185 -2.966633 -12.653495 -5.504224 29.002207 0.000000 0.000000 0.000000 7.125000 0.000000 0.000000 20.410916 58.398715 -6.873529
11.080371 16.852970 -2.043858 153.520504 -82.641555 -150.360494 0.000000 0.000000 0.000000 -15.157385 -8.175319 -1.276330 0.951649 6.212251 17.401523 0.620119 13.032226 -24.715418 0.051058 -1.457390 -4.008348 0.000000 0.000000 0.000000 12.924137 -1.019588 -5.573414 -0.873136 -5.957271 16.660553 -0.600191 7.344531 -14.016254 -6.010665 -14.438496 45.024094 -2.941334 -0.428396 -6.221202 1.397145 -0.404261 2.416071 3.067212 -0.346410 6.048151 -3.446025 1.466261 -22.768541 -0.468241 2.965210 35.408986 0.905338 0.340853 16.554899 0.000000 0.000000 0.000000 -2.563739 -2.442781 -30.787382 11.750126 -19.428700 2.018428 21.917906 -13.136619 11.109145 0.000000 0.000000 0.000000 -7.125000 0.000000 0.000000 -3.645832 18.043064 -2.341388 0.000000 0.000000 0.000000 -2.249139 0.022693 20.268435 -14.586032 -23.566201 -3.058541 -12.377794 -6.159652 29.246453 0.000000 0.000000 0.000000 7.125000 0.000000 0.000000 20.869316 58.565479 -7.120650
11.083281 16.843947 -2.103237 152.497603 -82.875029 -149.555277 0.000000 0.000000 0.000000 -14.980724 -8.135668 -0.835492 0.911751 6.084230 17.029122 0.613433 12.908796 -24.529642 0.046392 -1.390357 -3.823492 0.000000 0.000000 0.000000 13.003804 -2.274820 -5.846586 -0.917895 -6.104440 17.087650 -0.607248 8.916330 -14.312955 -5.729303 -14.160519 43.884841 -2.955173 -0.724426 -6.267796 1.637373 -0.813187 2.335880 3.280231 -0.552761 6.025678 -3.141570 1.955897 -20.778787 -1.640855 3.894551 33.860725 0.504650 0.663719 15.355753 0.000000 0.000000 0.000000 -2.816706 -1.789660 -29.858930 11.886034 -19.633443 2.063840 23.155906 -13.215549 11.667054 0.000000 0.000000 0.000000 -7.125000 0.000000 0.000000 -2.799665 17.331239 -1.840360 0.000000 0.000000 0.000000 -2.665624 0.369134 21.046759 -14.589199 -23.570661 -3.059761 -12.261980 -6.408999 29.772957 0.000000 0.000000 0.000000 7.125000 0.000000 0.000000 21.377409 59.027742 -7.543761
11.113298 16.848819 -2.178010 152.404481 -82.998865 -149.537644 0.000000 0.000000 0.000000 -14.592974 -8.091841 -0.840653 0.888376 6.007955 16.807551 0.524640 13.171812 -24.047570 0.072952 -1.739374 -4.785940 0.000000 0.000000 0.000000 13.370235 -2.430225 -5.957187 -0.943219 -6.185551 17.323644 -0.695489 9.239040 -15.262972 -5.229163 -13.635020 41.798945 -2.873316 -0.603213 -6.124333 1.622226 -0.661601 2.410302 3.235999 -0.475566 6.008120 -3.097239 1.722236 -20.555262 -1.681077 3.538833 33.464517 0.413208 0.537084 15.120958 0.000000 0.000000 0.000000 -2.538352 -1.884487 -29.960656 11.851245 -19.581189 2.052167 23.709394 -12.474114 11.465996 0.000000 0.000000 0.000000 -7.125000 0.000000 0.000000 -2.403090 17.495404 -1.570878 0.000000 0.000000 0.000000 -2.325770 0.345979 20.470864 -14.587655 -23.568517 -3.059131 -12.380876 -6.142258 30.278241 0.000000 0.000000 0.000000 7.125000 0.000000 0.000000 21.638939 59.521569 -7.899471
11.148672 16.856529 -2.249581 150.105720 -83.284384 -147.360404 0.000000 0.000000 0.000000 -14.358449 -8.055400 -0.877561 0.860320 5.914671 16.537082 0.430531 13.260428 -23.309612 0.109508 -2.131940 -5.870641 0.000000 0.000000 0.000000 13.536208 -2.952092 -6.099401 -0.969385 -6.268388 17.565042 -0.296280 -12.720632 -21.409810 -0.000164 -0.039938 0.109637 -2.819668 -0.700091 -5.778911 1.640525 -0.806701 2.504474 3.209912 -0.546253 5.920500 -3.255387 1.670162 -20.595997 -1.741606 3.557788 33.173717 0.421142 0.531748 14.994220 0.000000 0.000000 0.000000 -2.448167 -2.084492 -29.567497 11.858479 -19.592107 2.054572 23.787374 -12.374382 11.648678 0.000000 0.000000 0.000000 -7.125000 0.000000 0.000000 -2.357479 17.289991 -1.551609 0.000000 0.000000 0.000000 -2.256706 0.353149 20.545456 -14.665581 -23.678165 -3.090385 -12.150711 -6.371937 29.891825 0.000000 0.000000 0.000000 7.125000 0.000000 0.000000 21.582156 59.112706 -7.664583
11.176497 16.858392 -2.326889 146.119674 -83.446515 -143.622855 0.000000 0.000000 0.000000 -14.378946 -7.971411 -0.774819 0.840444 5.847869 16.343599 0.360829 13.261048 -22.666639 0.142212 -2.429590 -6.694531 0.000000 0.000000 0.000000 13.463980 -3.538757 -5.905587 -0.992595 -6.340702 17.776352 -0.537719 -11.358665 -22.252110 -0.007317 -0.531761 1.461363 -2.866992 -0.662392 -5.425551 1.514009 -0.754288 2.575615 3.111391 -0.518397 5.787588 -3.395842 1.541011 -20.385984 -1.574208 3.345873 33.048028 0.474624 0.457372 14.882223 0.000000 0.000000 0.000000 -2.263622 -2.159892 -29.483928 11.876012 -19.618464 2.060450 23.684378 -12.340332 11.791855 0.000000 0.000000 0.000000 -7.125000 0.000000 0.000000 -2.436434 17.145145 -1.611431 0.000000 0.000000 0.000000 -2.052430 0.430878 20.243533 -14.620687 -23.615040 -3.072407 -12.479867 -6.184368 29.559621 0.000000 0.000000 0.000000 7.125000 0.000000 0.000000 20.992613 58.878905 -7.324497
11.216562 16.854666 -2.403303 146.291476 -84.013035 -143.664840 0.000000 0.000000 0.000000 -13.613241 -7.927934 -1.175784 0.831141 5.816119 16.251859 0.295206 13.139725 -21.892594 0.180966 -2.737359 -7.548567 0.000000 0.000000 0.000000 14.115809 -3.886022 -6.253822 -1.010527 -6.396075 17.938141 -0.685839 -10.601384 -22.867578 -0.011282 -0.685740 1.884500 -2.376377 -0.707851 -5.217450 1.641630 -0.865024 2.466030 2.957588 -0.552711 5.554584 -3.229965 1.486165 -20.241444 -1.841993 3.284624 33.019168 0.322270 0.414270 14.848332 0.000000 0.000000 0.000000 -2.167432 -1.978072 -29.224166 12.097342 -19.950372 2.135466 23.358482 -12.277411 11.744338 0.000000 0.000000 0.000000 -7.125000 0.000000 0.000000 -2.661650 17.228384 -1.755682 0.000000 0.000000 0.000000 -2.101060 0.635450 20.707627 -14.682810 -23.702298 -3.097337 -13.595150 -5.786437 29.678806 0.000000 0.000000 0.000000 7.125000 0.000000 0.000000 19.924753 59.240159 -7.111281
11.248068 16.850976 -2.478797 143.564444 -84.417082 -140.878760 0.000000 0.000000 0.000000 -13.217609 -7.791066 -1.701065 0.848520 5.875250 16.422786 0.262129 12.787908 -21.140913 0.227268 -3.068338 -8.468990 0.000000 0.000000 0.000000 14.358800 -4.833786 -6.670482 -1.006047 -6.382477 17.898261 -0.773533 -9.890756 -22.992509 -0.012769 -0.730091 2.006348 -2.151586 -0.777259 -5.180483 1.745323 -0.983618 2.556904 2.927205 -0.608584 5.634973 -3.557402 1.379010 -20.433173 -1.855319 3.274332 32.972570 0.373774 0.369142 14.866888 0.000000 0.000000 0.000000 -2.333053 -2.196097 -28.640323 12.318195 -20.280175 2.211345 22.948806 -11.956446 11.550427 0.000000 0.000000 0.000000 -7.125000 0.000000 0.000000 -2.939154 17.476865 -1.923366 0.000000 0.000000 0.000000 -2.357243 0.598873 20.932228 -14.560213 -23.529858 -3.048220 -13.235596 -6.084256 29.466763 0.000000 0.000000 0.000000 7.125000 0.000000 0.000000 20.141644 58.961130 -7.054248
11.290833 16.848023 -2.563450 142.912003 -84.998587 -140.122513 0.000000 0.000000 0.000000 -12.435529 -7.776640 -2.310902 0.869043 5.943985 16.621923 0.226768 12.543452 -20.476085 0.246597 -3.195436 -8.823433 0.000000 0.000000 0.000000 15.073740 -4.715835 -6.770894 -0.998606 -6.359487 17.831007 -0.814073 -10.238469 -23.654917 -0.007737 -0.564611 1.551562 -1.682938 -0.706764 -5.218937 1.844696 -0.933633 2.673481 2.771311 -0.572552 5.769067 -3.601245 1.247545 -20.354907 -1.750704 3.065062 32.703820 0.388534 0.308086 14.723876 0.000000 0.000000 0.000000 -2.308247 -2.483912 -28.509692 12.556208 -20.633445 2.294596 22.170282 -12.064264 11.657476 0.000000 0.000000 0.000000 -7.125000 0.000000 0.000000 -3.487999 17.434409 -2.286975 0.000000 0.000000 0.000000 -2.319288 0.389542 20.358217 -14.494307 -23.436914 -3.021931 -13.059130 -5.723805 29.304941 0.000000 0.000000 0.000000 7.125000 0.000000 0.000000 20.212089 58.769248 -6.990690
11.321421 16.849048 -2.641472 137.055018 -85.499331 -134.212215 0.000000 0.000000 0.000000 -12.087009 -7.555865 -2.989631 0.904399 6.060154 16.959090 0.222446 11.938759 -19.697097 0.294203 -3.487209 -9.638287 0.000000 0.000000 0.000000 15.283229 -5.640139 -7.040015 -0.974893 -6.285531 17.615209 -0.849593 -9.837870 -23.606653 -0.000825 -0.138472 0.380418 -1.378597 -0.638600 -5.204778 1.743746 -0.860263 2.708867 2.501859 -0.522868 5.786114 -3.425172 0.992940 -20.160707 -1.836552 2.644434 32.512918 0.247077 0.151653 14.601848 0.000000 0.000000 0.000000 -2.135691 -2.215769 -28.579840 13.101808 -21.435735 2.490698 21.967047 -12.100581 11.557226 0.000000 0.000000 0.000000 -7.125000 0.000000 0.000000 -3.626555 17.560231 -2.368049 0.000000 0.000000 0.000000 -2.186144 0.355737 19.831007 -14.251209 -23.092662 -2.925950 -13.105621 -5.828563 28.905771 0.000000 0.000000 0.000000 7.125000 0.000000 0.000000 19.876533 58.407440 -6.689668
11.361490 16.847895 -2.723057 132.919190 -86.011273 -129.995327 0.000000 0.000000 0.000000 -11.480168 -7.313182 -3.752100 0.949432 6.205287 17.381324 0.240994 11.253171 -19.083828 0.306515 -3.558774 -9.838669 0.000000 0.000000 0.000000 15.799896 -5.749852 -7.021811 -0.942820 -6.184437 17.320471 -0.933396 -9.769258 -24.251710 -0.000105 0.053736 -0.147659 -1.180006 -0.750532 -4.850823 1.940536 -1.037027 2.566724 2.580157 -0.603173 5.444386 -3.450104 0.955914 -20.104619 -2.071157 2.671245 32.625738 0.157853 0.118832 14.647228 0.000000 0.000000 0.000000 -2.345272 -1.757397 -28.062448 13.645725 -22.225849 2.692704 22.208237 -12.479769 11.624301 0.000000 0.000000 0.000000 -7.125000 0.000000 0.000000 -3.460276 17.466408 -2.266143 0.000000 0.000000 0.000000 -2.526235 0.482554 19.874449 -14.064988 -22.827608 -2.853283 -12.965536 -5.663868 29.516478 0.000000 0.000000 0.000000 7.125000 0.000000 0.000000 20.456870 58.947701 -7.161303
